<svg xmlns="http://www.w3.org/2000/svg" xmlns:xlink="http://www.w3.org/1999/xlink" width="2000" zoomAndPan="magnify" viewBox="0 0 1500 1499.999933" height="2000" preserveAspectRatio="xMidYMid meet" version="1.0"><defs><g/><clipPath id="0960a86406"><rect x="0" width="1055" y="0" height="680"/></clipPath><clipPath id="8eacb06850"><rect x="0" width="1499" y="0" height="546"/></clipPath></defs><g transform="matrix(1, 0, 0, 1, 0, 131)"><g clip-path="url(#0960a86406)"><g fill="#F7F3EE" fill-opacity="1"><g transform="translate(2.557962, 549.116112)"><g><path d="M 300.8125 -362.203125 L 300.8125 -351.96875 C 294.332031 -350.601562 287.847656 -346.421875 281.359375 -339.421875 C 274.878906 -332.429688 267.71875 -321.4375 259.875 -306.4375 L 156.546875 -101.796875 L 147.84375 -101.796875 L 28.140625 -322.8125 C 21.316406 -335.425781 15.601562 -343.351562 11 -346.59375 C 6.394531 -349.832031 2.21875 -351.453125 -1.53125 -351.453125 L -1.53125 -362.203125 C 5.289062 -361.859375 12.363281 -361.515625 19.6875 -361.171875 C 27.019531 -360.828125 34.953125 -360.65625 43.484375 -360.65625 C 54.734375 -360.65625 66.753906 -360.738281 79.546875 -360.90625 C 92.335938 -361.082031 104.191406 -361.515625 115.109375 -362.203125 L 115.109375 -351.453125 C 106.578125 -351.453125 99.070312 -350.425781 92.59375 -348.375 C 86.113281 -346.332031 81.847656 -342.582031 79.796875 -337.125 C 77.753906 -331.664062 79.289062 -323.992188 84.40625 -314.109375 L 170.859375 -148.359375 L 166.78125 -145.28125 L 234.8125 -280.859375 C 244.363281 -299.617188 249.050781 -314.113281 248.875 -324.34375 C 248.707031 -334.570312 244.703125 -341.644531 236.859375 -345.5625 C 229.015625 -349.488281 217.929688 -351.625 203.609375 -351.96875 L 203.609375 -362.203125 C 213.492188 -361.859375 223.550781 -361.515625 233.78125 -361.171875 C 244.019531 -360.828125 253.570312 -360.65625 262.4375 -360.65625 C 271.300781 -360.65625 278.632812 -360.828125 284.4375 -361.171875 C 290.238281 -361.515625 295.695312 -361.859375 300.8125 -362.203125 Z M 179.5625 -155.515625 L 179.5625 -54.234375 C 179.5625 -41.953125 180.582031 -32.738281 182.625 -26.59375 C 184.675781 -20.457031 188.6875 -16.363281 194.65625 -14.3125 C 200.625 -12.269531 209.40625 -10.910156 221 -10.234375 L 221 0 C 213.15625 -0.675781 203.347656 -1.097656 191.578125 -1.265625 C 179.816406 -1.441406 167.96875 -1.53125 156.03125 -1.53125 C 142.726562 -1.53125 130.28125 -1.441406 118.6875 -1.265625 C 107.09375 -1.097656 97.710938 -0.675781 90.546875 0 L 90.546875 -10.234375 C 102.140625 -10.910156 110.921875 -12.269531 116.890625 -14.3125 C 122.859375 -16.363281 126.863281 -20.457031 128.90625 -26.59375 C 130.957031 -32.738281 131.984375 -41.953125 131.984375 -54.234375 L 131.984375 -159.09375 L 159.609375 -127.390625 Z M 179.5625 -155.515625 "/></g></g></g><g fill="#F7F3EE" fill-opacity="1"><g transform="translate(277.269344, 549.116112)"><g><path d="M 87.484375 3.578125 C 73.492188 3.578125 61.382812 0.9375 51.15625 -4.34375 C 40.925781 -9.632812 33.164062 -17.050781 27.875 -26.59375 C 22.59375 -36.144531 19.953125 -47.234375 19.953125 -59.859375 C 19.953125 -74.859375 23.445312 -87.132812 30.4375 -96.6875 C 37.425781 -106.238281 46.378906 -113.910156 57.296875 -119.703125 C 68.210938 -125.503906 79.722656 -130.363281 91.828125 -134.28125 C 103.929688 -138.207031 115.441406 -141.960938 126.359375 -145.546875 C 137.273438 -149.128906 146.226562 -153.304688 153.21875 -158.078125 C 160.207031 -162.847656 163.703125 -169.15625 163.703125 -177 L 163.703125 -208.71875 C 163.703125 -223.039062 161.570312 -233.953125 157.3125 -241.453125 C 153.050781 -248.960938 147.335938 -253.992188 140.171875 -256.546875 C 133.003906 -259.109375 124.988281 -260.390625 116.125 -260.390625 C 107.601562 -260.390625 98.476562 -259.195312 88.75 -256.8125 C 79.03125 -254.425781 71.273438 -249.476562 65.484375 -241.96875 C 71.960938 -240.613281 77.585938 -237.207031 82.359375 -231.75 C 87.140625 -226.289062 89.53125 -219.296875 89.53125 -210.765625 C 89.53125 -202.242188 86.800781 -195.507812 81.34375 -190.5625 C 75.882812 -185.613281 68.890625 -183.140625 60.359375 -183.140625 C 50.472656 -183.140625 43.226562 -186.296875 38.625 -192.609375 C 34.019531 -198.921875 31.71875 -206 31.71875 -213.84375 C 31.71875 -222.707031 33.929688 -229.867188 38.359375 -235.328125 C 42.796875 -240.785156 48.425781 -245.898438 55.25 -250.671875 C 63.09375 -256.128906 73.238281 -260.816406 85.6875 -264.734375 C 98.132812 -268.660156 112.203125 -270.625 127.890625 -270.625 C 141.878906 -270.625 153.816406 -269.003906 163.703125 -265.765625 C 173.597656 -262.523438 181.785156 -257.835938 188.265625 -251.703125 C 197.128906 -243.515625 202.925781 -233.535156 205.65625 -221.765625 C 208.382812 -210.003906 209.75 -195.9375 209.75 -179.5625 L 209.75 -37.34375 C 209.75 -28.820312 211.023438 -22.679688 213.578125 -18.921875 C 216.140625 -15.171875 220.148438 -13.296875 225.609375 -13.296875 C 229.359375 -13.296875 232.9375 -14.148438 236.34375 -15.859375 C 239.757812 -17.566406 243.851562 -20.296875 248.625 -24.046875 L 254.25 -15.34375 C 247.09375 -9.882812 240.273438 -5.363281 233.796875 -1.78125 C 227.316406 1.789062 218.617188 3.578125 207.703125 3.578125 C 197.804688 3.578125 189.617188 1.875 183.140625 -1.53125 C 176.660156 -4.945312 171.800781 -9.976562 168.5625 -16.625 C 165.320312 -23.28125 163.703125 -31.722656 163.703125 -41.953125 C 154.492188 -26.597656 143.492188 -15.171875 130.703125 -7.671875 C 117.921875 -0.171875 103.515625 3.578125 87.484375 3.578125 Z M 105.890625 -16.875 C 117.148438 -16.875 127.640625 -20.113281 137.359375 -26.59375 C 147.078125 -33.082031 155.859375 -42.804688 163.703125 -55.765625 L 163.703125 -156.03125 C 159.609375 -150.226562 153.640625 -145.363281 145.796875 -141.4375 C 137.953125 -137.519531 129.425781 -133.597656 120.21875 -129.671875 C 111.007812 -125.753906 102.226562 -121.148438 93.875 -115.859375 C 85.519531 -110.578125 78.613281 -103.671875 73.15625 -95.140625 C 67.695312 -86.617188 64.96875 -75.539062 64.96875 -61.90625 C 64.96875 -48.257812 68.632812 -37.34375 75.96875 -29.15625 C 83.300781 -20.96875 93.273438 -16.875 105.890625 -16.875 Z M 105.890625 -16.875 "/></g></g></g><g fill="#F7F3EE" fill-opacity="1"><g transform="translate(534.076328, 549.116112)"><g><path d="M 252.71875 -263.46875 L 252.71875 -253.234375 C 246.238281 -252.546875 240.269531 -249.644531 234.8125 -244.53125 C 229.351562 -239.414062 224.238281 -230.378906 219.46875 -217.421875 L 135.5625 2.5625 L 126.875 2.5625 L 32.734375 -224.078125 C 26.253906 -237.367188 19.859375 -245.460938 13.546875 -248.359375 C 7.242188 -251.265625 2.046875 -252.71875 -2.046875 -252.71875 L -2.046875 -263.46875 C 5.453125 -262.4375 13.296875 -261.664062 21.484375 -261.15625 C 29.671875 -260.644531 38.539062 -260.390625 48.09375 -260.390625 C 58.664062 -260.390625 69.832031 -260.726562 81.59375 -261.40625 C 93.363281 -262.09375 104.363281 -262.78125 114.59375 -263.46875 L 114.59375 -252.71875 C 106.0625 -252.71875 98.472656 -252.117188 91.828125 -250.921875 C 85.179688 -249.734375 81.003906 -246.15625 79.296875 -240.1875 C 77.585938 -234.21875 79.632812 -224.070312 85.4375 -209.75 L 148.359375 -53.71875 L 145.28125 -52.6875 L 203.609375 -205.140625 C 208.046875 -216.398438 209.835938 -225.351562 208.984375 -232 C 208.128906 -238.644531 204.628906 -243.671875 198.484375 -247.078125 C 192.347656 -250.492188 183.140625 -252.546875 170.859375 -253.234375 L 170.859375 -263.46875 C 177.003906 -263.125 182.289062 -262.863281 186.71875 -262.6875 C 191.15625 -262.519531 195.503906 -262.347656 199.765625 -262.171875 C 204.035156 -262.003906 208.726562 -261.921875 213.84375 -261.921875 C 221.6875 -261.921875 228.757812 -262.09375 235.0625 -262.4375 C 241.375 -262.78125 247.257812 -263.125 252.71875 -263.46875 Z M 135.5625 2.5625 L 118.171875 47.0625 C 114.765625 55.59375 111.269531 62.753906 107.6875 68.546875 C 104.101562 74.347656 100.265625 79.125 96.171875 82.875 C 90.710938 87.988281 84.234375 91.484375 76.734375 93.359375 C 69.234375 95.234375 62.414062 96.171875 56.28125 96.171875 C 49.789062 96.171875 43.898438 94.976562 38.609375 92.59375 C 33.328125 90.207031 29.148438 86.710938 26.078125 82.109375 C 23.015625 77.503906 21.484375 71.960938 21.484375 65.484375 C 21.484375 57.296875 23.867188 50.726562 28.640625 45.78125 C 33.421875 40.84375 40.070312 38.375 48.59375 38.375 C 55.757812 38.375 61.898438 40.414062 67.015625 44.5 C 72.128906 48.59375 74.6875 54.5625 74.6875 62.40625 C 74.6875 68.207031 73.320312 72.984375 70.59375 76.734375 C 67.863281 80.484375 64.625 83.382812 60.875 85.4375 C 61.5625 85.769531 62.160156 85.9375 62.671875 85.9375 C 63.179688 85.9375 63.609375 85.9375 63.953125 85.9375 C 73.160156 85.9375 81.34375 82.78125 88.5 76.46875 C 95.664062 70.164062 101.976562 60.023438 107.4375 46.046875 L 125.84375 -1.53125 Z M 135.5625 2.5625 "/></g></g></g><g fill="#F7F3EE" fill-opacity="1"><g transform="translate(793.952732, 549.116112)"><g><path d="M 87.484375 3.578125 C 73.492188 3.578125 61.382812 0.9375 51.15625 -4.34375 C 40.925781 -9.632812 33.164062 -17.050781 27.875 -26.59375 C 22.59375 -36.144531 19.953125 -47.234375 19.953125 -59.859375 C 19.953125 -74.859375 23.445312 -87.132812 30.4375 -96.6875 C 37.425781 -106.238281 46.378906 -113.910156 57.296875 -119.703125 C 68.210938 -125.503906 79.722656 -130.363281 91.828125 -134.28125 C 103.929688 -138.207031 115.441406 -141.960938 126.359375 -145.546875 C 137.273438 -149.128906 146.226562 -153.304688 153.21875 -158.078125 C 160.207031 -162.847656 163.703125 -169.15625 163.703125 -177 L 163.703125 -208.71875 C 163.703125 -223.039062 161.570312 -233.953125 157.3125 -241.453125 C 153.050781 -248.960938 147.335938 -253.992188 140.171875 -256.546875 C 133.003906 -259.109375 124.988281 -260.390625 116.125 -260.390625 C 107.601562 -260.390625 98.476562 -259.195312 88.75 -256.8125 C 79.03125 -254.425781 71.273438 -249.476562 65.484375 -241.96875 C 71.960938 -240.613281 77.585938 -237.207031 82.359375 -231.75 C 87.140625 -226.289062 89.53125 -219.296875 89.53125 -210.765625 C 89.53125 -202.242188 86.800781 -195.507812 81.34375 -190.5625 C 75.882812 -185.613281 68.890625 -183.140625 60.359375 -183.140625 C 50.472656 -183.140625 43.226562 -186.296875 38.625 -192.609375 C 34.019531 -198.921875 31.71875 -206 31.71875 -213.84375 C 31.71875 -222.707031 33.929688 -229.867188 38.359375 -235.328125 C 42.796875 -240.785156 48.425781 -245.898438 55.25 -250.671875 C 63.09375 -256.128906 73.238281 -260.816406 85.6875 -264.734375 C 98.132812 -268.660156 112.203125 -270.625 127.890625 -270.625 C 141.878906 -270.625 153.816406 -269.003906 163.703125 -265.765625 C 173.597656 -262.523438 181.785156 -257.835938 188.265625 -251.703125 C 197.128906 -243.515625 202.925781 -233.535156 205.65625 -221.765625 C 208.382812 -210.003906 209.75 -195.9375 209.75 -179.5625 L 209.75 -37.34375 C 209.75 -28.820312 211.023438 -22.679688 213.578125 -18.921875 C 216.140625 -15.171875 220.148438 -13.296875 225.609375 -13.296875 C 229.359375 -13.296875 232.9375 -14.148438 236.34375 -15.859375 C 239.757812 -17.566406 243.851562 -20.296875 248.625 -24.046875 L 254.25 -15.34375 C 247.09375 -9.882812 240.273438 -5.363281 233.796875 -1.78125 C 227.316406 1.789062 218.617188 3.578125 207.703125 3.578125 C 197.804688 3.578125 189.617188 1.875 183.140625 -1.53125 C 176.660156 -4.945312 171.800781 -9.976562 168.5625 -16.625 C 165.320312 -23.28125 163.703125 -31.722656 163.703125 -41.953125 C 154.492188 -26.597656 143.492188 -15.171875 130.703125 -7.671875 C 117.921875 -0.171875 103.515625 3.578125 87.484375 3.578125 Z M 105.890625 -16.875 C 117.148438 -16.875 127.640625 -20.113281 137.359375 -26.59375 C 147.078125 -33.082031 155.859375 -42.804688 163.703125 -55.765625 L 163.703125 -156.03125 C 159.609375 -150.226562 153.640625 -145.363281 145.796875 -141.4375 C 137.953125 -137.519531 129.425781 -133.597656 120.21875 -129.671875 C 111.007812 -125.753906 102.226562 -121.148438 93.875 -115.859375 C 85.519531 -110.578125 78.613281 -103.671875 73.15625 -95.140625 C 67.695312 -86.617188 64.96875 -75.539062 64.96875 -61.90625 C 64.96875 -48.257812 68.632812 -37.34375 75.96875 -29.15625 C 83.300781 -20.96875 93.273438 -16.875 105.890625 -16.875 Z M 105.890625 -16.875 "/></g></g></g></g></g><g transform="matrix(1, 0, 0, 1, 0, 542)"><g clip-path="url(#8eacb06850)"><g fill="#F7F3EE" fill-opacity="1"><g transform="translate(-2.046319, 442.118187)"><g><path d="M 76.9375 -215.28125 L 76.9375 36.015625 C 76.9375 47.742188 80.414062 55.585938 87.375 59.546875 C 94.332031 63.503906 103.953125 65.484375 116.234375 65.484375 L 116.234375 74.078125 C 110.234375 73.804688 101.910156 73.460938 91.265625 73.046875 C 80.628906 72.640625 69.304688 72.4375 57.296875 72.4375 C 48.835938 72.4375 40.445312 72.640625 32.125 73.046875 C 23.800781 73.460938 17.457031 73.804688 13.09375 74.078125 L 13.09375 65.484375 C 22.914062 65.484375 29.875 63.707031 33.96875 60.15625 C 38.0625 56.613281 40.109375 49.929688 40.109375 40.109375 L 40.109375 -166.15625 C 40.109375 -178.4375 37.925781 -187.507812 33.5625 -193.375 C 29.195312 -199.238281 21.007812 -202.171875 9 -202.171875 L 9 -210.765625 C 17.726562 -209.953125 26.1875 -209.546875 34.375 -209.546875 C 42.289062 -209.546875 49.863281 -210.019531 57.09375 -210.96875 C 64.320312 -211.925781 70.9375 -213.363281 76.9375 -215.28125 Z M 142.421875 -216.5 C 156.878906 -216.5 169.835938 -212.609375 181.296875 -204.828125 C 192.765625 -197.054688 201.835938 -185.664062 208.515625 -170.65625 C 215.203125 -155.65625 218.546875 -137.101562 218.546875 -115 C 218.546875 -100.269531 216.769531 -85.742188 213.21875 -71.421875 C 209.675781 -57.097656 204.148438 -44.132812 196.640625 -32.53125 C 189.140625 -20.9375 179.457031 -11.660156 167.59375 -4.703125 C 155.726562 2.253906 141.472656 5.734375 124.828125 5.734375 C 112.003906 5.734375 100.882812 2.734375 91.46875 -3.265625 C 82.050781 -9.273438 75.707031 -16.507812 72.4375 -24.96875 L 76.53125 -30.6875 C 80.351562 -23.050781 85.878906 -16.640625 93.109375 -11.453125 C 100.335938 -6.273438 109.410156 -3.6875 120.328125 -3.6875 C 135.609375 -3.6875 147.476562 -8.457031 155.9375 -18 C 164.394531 -27.550781 170.328125 -40.304688 173.734375 -56.265625 C 177.140625 -72.234375 178.84375 -89.90625 178.84375 -109.28125 C 178.84375 -131.101562 177.066406 -148.972656 173.515625 -162.890625 C 169.972656 -176.804688 164.65625 -187.171875 157.5625 -193.984375 C 150.46875 -200.804688 141.738281 -204.21875 131.375 -204.21875 C 118 -204.21875 105.851562 -198.691406 94.9375 -187.640625 C 84.03125 -176.597656 77.078125 -159.890625 74.078125 -137.515625 L 69.171875 -143.25 C 72.171875 -166.4375 80.421875 -184.441406 93.921875 -197.265625 C 107.429688 -210.085938 123.597656 -216.5 142.421875 -216.5 Z M 142.421875 -216.5 "/></g></g></g><g fill="#F7F3EE" fill-opacity="1"><g transform="translate(231.644939, 442.118187)"><g><path d="M 139.15625 -216.5 C 146.519531 -216.5 153 -215 158.59375 -212 C 164.1875 -209 168.550781 -205.109375 171.6875 -200.328125 C 174.820312 -195.554688 176.390625 -190.171875 176.390625 -184.171875 C 176.390625 -177.347656 174.273438 -171.34375 170.046875 -166.15625 C 165.816406 -160.976562 160.15625 -158.390625 153.0625 -158.390625 C 147.332031 -158.390625 142.285156 -160.226562 137.921875 -163.90625 C 133.554688 -167.59375 131.375 -172.847656 131.375 -179.671875 C 131.375 -184.847656 132.804688 -189.28125 135.671875 -192.96875 C 138.535156 -196.65625 141.742188 -199.585938 145.296875 -201.765625 C 143.378906 -204.492188 140.507812 -205.859375 136.6875 -205.859375 C 128.226562 -205.859375 120.453125 -203.332031 113.359375 -198.28125 C 106.265625 -193.238281 100.257812 -186.757812 95.34375 -178.84375 C 90.4375 -170.9375 86.617188 -162.546875 83.890625 -153.671875 C 81.171875 -144.804688 79.8125 -136.554688 79.8125 -128.921875 L 79.8125 -42.15625 C 79.8125 -28.78125 83.695312 -19.84375 91.46875 -15.34375 C 99.25 -10.84375 109.820312 -8.59375 123.1875 -8.59375 L 123.1875 0 C 116.914062 -0.269531 108.046875 -0.609375 96.578125 -1.015625 C 85.117188 -1.429688 72.976562 -1.640625 60.15625 -1.640625 C 50.882812 -1.640625 41.675781 -1.429688 32.53125 -1.015625 C 23.394531 -0.609375 16.507812 -0.269531 11.875 0 L 11.875 -8.59375 C 23.0625 -8.59375 31.039062 -10.640625 35.8125 -14.734375 C 40.582031 -18.828125 42.96875 -26.601562 42.96875 -38.0625 L 42.96875 -166.15625 C 42.96875 -178.4375 40.785156 -187.507812 36.421875 -193.375 C 32.054688 -199.238281 23.875 -202.171875 11.875 -202.171875 L 11.875 -210.765625 C 20.601562 -209.953125 29.0625 -209.546875 37.25 -209.546875 C 45.15625 -209.546875 52.722656 -210.019531 59.953125 -210.96875 C 67.179688 -211.925781 73.800781 -213.363281 79.8125 -215.28125 L 79.8125 -164.109375 C 82.8125 -172.023438 87.109375 -180.003906 92.703125 -188.046875 C 98.296875 -196.097656 105.046875 -202.851562 112.953125 -208.3125 C 120.867188 -213.769531 129.601562 -216.5 139.15625 -216.5 Z M 139.15625 -216.5 "/></g></g></g><g fill="#F7F3EE" fill-opacity="1"><g transform="translate(401.490578, 442.118187)"><g><path d="M 111.3125 -216.5 C 135.320312 -216.5 154.082031 -209.195312 167.59375 -194.59375 C 181.101562 -180 187.859375 -157.289062 187.859375 -126.46875 L 43.375 -126.46875 L 42.96875 -134.234375 L 148.5625 -134.234375 C 149.101562 -147.609375 148.007812 -159.957031 145.28125 -171.28125 C 142.5625 -182.601562 138.265625 -191.671875 132.390625 -198.484375 C 126.523438 -205.304688 118.957031 -208.71875 109.6875 -208.71875 C 97.132812 -208.71875 86.015625 -202.441406 76.328125 -189.890625 C 66.640625 -177.347656 60.84375 -157.429688 58.9375 -130.140625 L 60.15625 -128.515625 C 59.613281 -124.421875 59.207031 -119.914062 58.9375 -115 C 58.664062 -110.09375 58.53125 -105.179688 58.53125 -100.265625 C 58.53125 -81.710938 61.53125 -65.75 67.53125 -52.375 C 73.53125 -39.007812 81.375 -28.847656 91.0625 -21.890625 C 100.75 -14.929688 110.773438 -11.453125 121.140625 -11.453125 C 129.328125 -11.453125 137.101562 -12.75 144.46875 -15.34375 C 151.832031 -17.9375 158.648438 -22.234375 164.921875 -28.234375 C 171.203125 -34.242188 176.660156 -42.296875 181.296875 -52.390625 L 189.484375 -49.109375 C 186.484375 -40.109375 181.570312 -31.378906 174.75 -22.921875 C 167.9375 -14.460938 159.34375 -7.570312 148.96875 -2.25 C 138.601562 3.070312 126.597656 5.734375 112.953125 5.734375 C 93.304688 5.734375 76.457031 1.234375 62.40625 -7.765625 C 48.351562 -16.773438 37.578125 -29.257812 30.078125 -45.21875 C 22.578125 -61.1875 18.828125 -79.535156 18.828125 -100.265625 C 18.828125 -124.273438 22.644531 -144.941406 30.28125 -162.265625 C 37.925781 -179.597656 48.703125 -192.96875 62.609375 -202.375 C 76.523438 -211.789062 92.757812 -216.5 111.3125 -216.5 Z M 111.3125 -216.5 "/></g></g></g><g fill="#F7F3EE" fill-opacity="1"><g transform="translate(604.486812, 442.118187)"><g><path d="M 149.375 -216.5 C 159.75 -216.5 168.414062 -215.132812 175.375 -212.40625 C 182.332031 -209.675781 188.128906 -205.859375 192.765625 -200.953125 C 197.953125 -195.492188 201.632812 -188.671875 203.8125 -180.484375 C 206 -172.296875 207.09375 -161.242188 207.09375 -147.328125 L 207.09375 -38.0625 C 207.09375 -26.601562 209.476562 -18.828125 214.25 -14.734375 C 219.019531 -10.640625 227 -8.59375 238.1875 -8.59375 L 238.1875 0 C 233.550781 -0.269531 226.457031 -0.609375 216.90625 -1.015625 C 207.363281 -1.429688 198.085938 -1.640625 189.078125 -1.640625 C 180.078125 -1.640625 171.28125 -1.429688 162.6875 -1.015625 C 154.09375 -0.609375 147.613281 -0.269531 143.25 0 L 143.25 -8.59375 C 153.0625 -8.59375 160.015625 -10.640625 164.109375 -14.734375 C 168.203125 -18.828125 170.25 -26.601562 170.25 -38.0625 L 170.25 -156.34375 C 170.25 -164.800781 169.566406 -172.578125 168.203125 -179.671875 C 166.835938 -186.765625 163.769531 -192.492188 159 -196.859375 C 154.226562 -201.222656 146.929688 -203.40625 137.109375 -203.40625 C 125.648438 -203.40625 115.617188 -200.128906 107.015625 -193.578125 C 98.421875 -187.035156 91.738281 -178.101562 86.96875 -166.78125 C 82.195312 -155.457031 79.8125 -142.835938 79.8125 -128.921875 L 79.8125 -38.0625 C 79.8125 -26.601562 81.851562 -18.828125 85.9375 -14.734375 C 90.03125 -10.640625 96.988281 -8.59375 106.8125 -8.59375 L 106.8125 0 C 102.445312 -0.269531 95.96875 -0.609375 87.375 -1.015625 C 78.78125 -1.429688 69.984375 -1.640625 60.984375 -1.640625 C 51.972656 -1.640625 42.691406 -1.429688 33.140625 -1.015625 C 23.597656 -0.609375 16.507812 -0.269531 11.875 0 L 11.875 -8.59375 C 23.0625 -8.59375 31.039062 -10.640625 35.8125 -14.734375 C 40.582031 -18.828125 42.96875 -26.601562 42.96875 -38.0625 L 42.96875 -166.15625 C 42.96875 -178.4375 40.785156 -187.507812 36.421875 -193.375 C 32.054688 -199.238281 23.875 -202.171875 11.875 -202.171875 L 11.875 -210.765625 C 20.601562 -209.953125 29.0625 -209.546875 37.25 -209.546875 C 45.15625 -209.546875 52.722656 -210.019531 59.953125 -210.96875 C 67.179688 -211.925781 73.800781 -213.363281 79.8125 -215.28125 L 79.8125 -166.984375 C 86.90625 -185.535156 96.796875 -198.425781 109.484375 -205.65625 C 122.171875 -212.882812 135.46875 -216.5 149.375 -216.5 Z M 149.375 -216.5 "/></g></g></g><g fill="#F7F3EE" fill-opacity="1"><g transform="translate(844.726375, 442.118187)"><g><path d="M 69.984375 2.859375 C 58.796875 2.859375 49.109375 0.742188 40.921875 -3.484375 C 32.742188 -7.710938 26.539062 -13.644531 22.3125 -21.28125 C 18.082031 -28.914062 15.96875 -37.785156 15.96875 -47.890625 C 15.96875 -59.890625 18.757812 -69.707031 24.34375 -77.34375 C 29.9375 -84.988281 37.097656 -91.128906 45.828125 -95.765625 C 54.566406 -100.398438 63.773438 -104.285156 73.453125 -107.421875 C 83.140625 -110.566406 92.347656 -113.570312 101.078125 -116.4375 C 109.816406 -119.300781 116.984375 -122.640625 122.578125 -126.453125 C 128.171875 -130.273438 130.96875 -135.328125 130.96875 -141.609375 L 130.96875 -166.984375 C 130.96875 -178.441406 129.257812 -187.171875 125.84375 -193.171875 C 122.4375 -199.171875 117.867188 -203.191406 112.140625 -205.234375 C 106.410156 -207.285156 100 -208.3125 92.90625 -208.3125 C 86.082031 -208.3125 78.78125 -207.359375 71 -205.453125 C 63.226562 -203.546875 57.023438 -199.585938 52.390625 -193.578125 C 57.566406 -192.492188 62.066406 -189.765625 65.890625 -185.390625 C 69.710938 -181.023438 71.625 -175.4375 71.625 -168.625 C 71.625 -161.800781 69.441406 -156.410156 65.078125 -152.453125 C 60.710938 -148.492188 55.117188 -146.515625 48.296875 -146.515625 C 40.378906 -146.515625 34.578125 -149.035156 30.890625 -154.078125 C 27.210938 -159.128906 25.375 -164.796875 25.375 -171.078125 C 25.375 -178.171875 27.144531 -183.898438 30.6875 -188.265625 C 34.238281 -192.628906 38.742188 -196.722656 44.203125 -200.546875 C 50.472656 -204.910156 58.585938 -208.660156 68.546875 -211.796875 C 78.503906 -214.929688 89.757812 -216.5 102.3125 -216.5 C 113.5 -216.5 123.046875 -215.203125 130.953125 -212.609375 C 138.867188 -210.015625 145.421875 -206.265625 150.609375 -201.359375 C 157.703125 -194.804688 162.335938 -186.820312 164.515625 -177.40625 C 166.703125 -168 167.796875 -156.75 167.796875 -143.65625 L 167.796875 -29.875 C 167.796875 -23.050781 168.816406 -18.140625 170.859375 -15.140625 C 172.910156 -12.140625 176.117188 -10.640625 180.484375 -10.640625 C 183.484375 -10.640625 186.347656 -11.320312 189.078125 -12.6875 C 191.804688 -14.050781 195.082031 -16.234375 198.90625 -19.234375 L 203.40625 -12.28125 C 197.675781 -7.914062 192.21875 -4.300781 187.03125 -1.4375 C 181.851562 1.425781 174.894531 2.859375 166.15625 2.859375 C 158.25 2.859375 151.703125 1.492188 146.515625 -1.234375 C 141.328125 -3.960938 137.4375 -7.984375 134.84375 -13.296875 C 132.257812 -18.617188 130.96875 -25.375 130.96875 -33.5625 C 123.601562 -21.28125 114.800781 -12.140625 104.5625 -6.140625 C 94.332031 -0.140625 82.804688 2.859375 69.984375 2.859375 Z M 84.71875 -13.5 C 93.71875 -13.5 102.101562 -16.09375 109.875 -21.28125 C 117.65625 -26.46875 124.6875 -34.242188 130.96875 -44.609375 L 130.96875 -124.828125 C 127.6875 -120.191406 122.910156 -116.300781 116.640625 -113.15625 C 110.367188 -110.019531 103.546875 -106.882812 96.171875 -103.75 C 88.804688 -100.613281 81.78125 -96.929688 75.09375 -92.703125 C 68.414062 -88.472656 62.894531 -82.945312 58.53125 -76.125 C 54.164062 -69.300781 51.984375 -60.429688 51.984375 -49.515625 C 51.984375 -38.609375 54.914062 -29.878906 60.78125 -23.328125 C 66.644531 -16.773438 74.625 -13.5 84.71875 -13.5 Z M 84.71875 -13.5 "/></g></g></g><g fill="#F7F3EE" fill-opacity="1"><g transform="translate(1044.448515, 442.118187)"><g><path d="M 77.765625 -278.703125 L 77.765625 -210.359375 L 138.328125 -210.359375 L 138.328125 -202.171875 L 77.765625 -202.171875 L 77.765625 -43.796875 C 77.765625 -30.972656 80.082031 -21.96875 84.71875 -16.78125 C 89.351562 -11.59375 95.765625 -9 103.953125 -9 C 112.140625 -9 119.234375 -12.34375 125.234375 -19.03125 C 131.234375 -25.71875 136.414062 -36.972656 140.78125 -52.796875 L 148.96875 -50.75 C 146.238281 -34.925781 140.847656 -21.554688 132.796875 -10.640625 C 124.753906 0.273438 112.410156 5.734375 95.765625 5.734375 C 86.492188 5.734375 78.851562 4.570312 72.84375 2.25 C 66.84375 -0.0703125 61.523438 -3.414062 56.890625 -7.78125 C 50.890625 -14.050781 46.726562 -21.550781 44.40625 -30.28125 C 42.082031 -39.007812 40.921875 -50.609375 40.921875 -65.078125 L 40.921875 -202.171875 L 1.640625 -202.171875 L 1.640625 -210.359375 L 40.921875 -210.359375 L 40.921875 -272.984375 C 47.742188 -273.253906 54.289062 -273.796875 60.5625 -274.609375 C 66.84375 -275.429688 72.578125 -276.796875 77.765625 -278.703125 Z M 77.765625 -278.703125 "/></g></g></g><g fill="#F7F3EE" fill-opacity="1"><g transform="translate(1185.236316, 442.118187)"><g><path d="M 69.984375 2.859375 C 58.796875 2.859375 49.109375 0.742188 40.921875 -3.484375 C 32.742188 -7.710938 26.539062 -13.644531 22.3125 -21.28125 C 18.082031 -28.914062 15.96875 -37.785156 15.96875 -47.890625 C 15.96875 -59.890625 18.757812 -69.707031 24.34375 -77.34375 C 29.9375 -84.988281 37.097656 -91.128906 45.828125 -95.765625 C 54.566406 -100.398438 63.773438 -104.285156 73.453125 -107.421875 C 83.140625 -110.566406 92.347656 -113.570312 101.078125 -116.4375 C 109.816406 -119.300781 116.984375 -122.640625 122.578125 -126.453125 C 128.171875 -130.273438 130.96875 -135.328125 130.96875 -141.609375 L 130.96875 -166.984375 C 130.96875 -178.441406 129.257812 -187.171875 125.84375 -193.171875 C 122.4375 -199.171875 117.867188 -203.191406 112.140625 -205.234375 C 106.410156 -207.285156 100 -208.3125 92.90625 -208.3125 C 86.082031 -208.3125 78.78125 -207.359375 71 -205.453125 C 63.226562 -203.546875 57.023438 -199.585938 52.390625 -193.578125 C 57.566406 -192.492188 62.066406 -189.765625 65.890625 -185.390625 C 69.710938 -181.023438 71.625 -175.4375 71.625 -168.625 C 71.625 -161.800781 69.441406 -156.410156 65.078125 -152.453125 C 60.710938 -148.492188 55.117188 -146.515625 48.296875 -146.515625 C 40.378906 -146.515625 34.578125 -149.035156 30.890625 -154.078125 C 27.210938 -159.128906 25.375 -164.796875 25.375 -171.078125 C 25.375 -178.171875 27.144531 -183.898438 30.6875 -188.265625 C 34.238281 -192.628906 38.742188 -196.722656 44.203125 -200.546875 C 50.472656 -204.910156 58.585938 -208.660156 68.546875 -211.796875 C 78.503906 -214.929688 89.757812 -216.5 102.3125 -216.5 C 113.5 -216.5 123.046875 -215.203125 130.953125 -212.609375 C 138.867188 -210.015625 145.421875 -206.265625 150.609375 -201.359375 C 157.703125 -194.804688 162.335938 -186.820312 164.515625 -177.40625 C 166.703125 -168 167.796875 -156.75 167.796875 -143.65625 L 167.796875 -29.875 C 167.796875 -23.050781 168.816406 -18.140625 170.859375 -15.140625 C 172.910156 -12.140625 176.117188 -10.640625 180.484375 -10.640625 C 183.484375 -10.640625 186.347656 -11.320312 189.078125 -12.6875 C 191.804688 -14.050781 195.082031 -16.234375 198.90625 -19.234375 L 203.40625 -12.28125 C 197.675781 -7.914062 192.21875 -4.300781 187.03125 -1.4375 C 181.851562 1.425781 174.894531 2.859375 166.15625 2.859375 C 158.25 2.859375 151.703125 1.492188 146.515625 -1.234375 C 141.328125 -3.960938 137.4375 -7.984375 134.84375 -13.296875 C 132.257812 -18.617188 130.96875 -25.375 130.96875 -33.5625 C 123.601562 -21.28125 114.800781 -12.140625 104.5625 -6.140625 C 94.332031 -0.140625 82.804688 2.859375 69.984375 2.859375 Z M 84.71875 -13.5 C 93.71875 -13.5 102.101562 -16.09375 109.875 -21.28125 C 117.65625 -26.46875 124.6875 -34.242188 130.96875 -44.609375 L 130.96875 -124.828125 C 127.6875 -120.191406 122.910156 -116.300781 116.640625 -113.15625 C 110.367188 -110.019531 103.546875 -106.882812 96.171875 -103.75 C 88.804688 -100.613281 81.78125 -96.929688 75.09375 -92.703125 C 68.414062 -88.472656 62.894531 -82.945312 58.53125 -76.125 C 54.164062 -69.300781 51.984375 -60.429688 51.984375 -49.515625 C 51.984375 -38.609375 54.914062 -29.878906 60.78125 -23.328125 C 66.644531 -16.773438 74.625 -13.5 84.71875 -13.5 Z M 84.71875 -13.5 "/></g></g></g><g fill="#F7F3EE" fill-opacity="1"><g transform="translate(1384.958456, 442.118187)"><g><path d="M 76.9375 -320.859375 L 76.9375 -38.0625 C 76.9375 -26.601562 79.320312 -18.828125 84.09375 -14.734375 C 88.875 -10.640625 96.859375 -8.59375 108.046875 -8.59375 L 108.046875 0 C 103.410156 -0.269531 96.382812 -0.609375 86.96875 -1.015625 C 77.550781 -1.429688 68.070312 -1.640625 58.53125 -1.640625 C 49.25 -1.640625 39.832031 -1.429688 30.28125 -1.015625 C 20.738281 -0.609375 13.644531 -0.269531 9 0 L 9 -8.59375 C 20.1875 -8.59375 28.164062 -10.640625 32.9375 -14.734375 C 37.71875 -18.828125 40.109375 -26.601562 40.109375 -38.0625 L 40.109375 -271.75 C 40.109375 -284.03125 37.925781 -293.101562 33.5625 -298.96875 C 29.195312 -304.832031 21.007812 -307.765625 9 -307.765625 L 9 -316.359375 C 17.726562 -315.546875 26.1875 -315.140625 34.375 -315.140625 C 42.289062 -315.140625 49.863281 -315.613281 57.09375 -316.5625 C 64.320312 -317.519531 70.9375 -318.953125 76.9375 -320.859375 Z M 76.9375 -320.859375 "/></g></g></g></g></g></svg>